<?xml version="1.0" encoding="UTF-8"?>
<svg version="1.1" xmlns="http://www.w3.org/2000/svg" xmlns:xlink="http://www.w3.org/1999/xlink">
<defs>

</defs>
<symbol id="i-de" viewBox="0 0 600 600" xmlns="http://www.w3.org/2000/svg" fill-rule="evenodd" clip-rule="evenodd" stroke-linejoin="round" stroke-miterlimit="2"><path d="M17.098 200C58.311 83.534 169.477 0 300 0c130.522 0 241.688 83.534 282.901 200H17.098z"/><path d="M582.901 200C593.975 231.292 600 264.948 600 300c0 35.052-6.025 68.708-17.099 100H17.098C6.024 368.708 0 335.052 0 300c0-35.052 6.024-68.708 17.098-100h565.803z" fill="#d00"/><path d="M582.901 400C541.688 516.466 430.522 600 300 600c-130.523 0-241.689-83.534-282.902-200h565.803z" fill="#ffce00"/></symbol>
<symbol id="i-en" viewBox="0 0 600 600" xmlns="http://www.w3.org/2000/svg" fill-rule="evenodd" clip-rule="evenodd" stroke-linejoin="round" stroke-miterlimit="2"><circle cx="256" cy="256" r="256" fill="#f0f0f0" transform="scale(1.17188)"/><path d="M62.016 117.354c-23.565 30.66-41.335 65.998-51.681 104.388h156.068L62.016 117.354zM589.668 221.742c-10.347-38.388-28.117-73.727-51.681-104.386L433.6 221.742h156.067zM10.335 378.264c10.348 38.389 28.117 73.727 51.68 104.385L166.4 378.264H10.335zM482.648 62.017c-30.66-23.565-65.997-41.334-104.386-51.682v156.067L482.648 62.017zM117.354 537.985c30.66 23.566 65.998 41.335 104.387 51.683V433.6L117.354 537.985zM221.74 10.335c-38.389 10.348-73.727 28.117-104.386 51.68L221.74 166.402V10.335zM378.263 589.668c38.388-10.348 73.726-28.117 104.385-51.681L378.263 433.6v156.067zM433.601 378.264L537.987 482.65c23.564-30.658 41.334-65.997 51.68-104.386H433.602z" fill="#0052b4" fill-rule="nonzero"/><path d="M597.463 260.871h-258.33V2.539A302.997 302.997 0 00300 0c-13.264 0-26.321.872-39.13 2.54v258.33H2.539A302.997 302.997 0 000 300c0 13.265.872 26.322 2.54 39.13h258.33v258.332a302.756 302.756 0 0078.262 0v-258.33h258.331a302.97 302.97 0 002.54-39.132c0-13.262-.872-26.321-2.54-39.13z" fill="#d80027" fill-rule="nonzero"/><path d="M378.263 378.264l133.87 133.871a300.747 300.747 0 0017.635-19.26L415.156 378.263h-36.893v.001zM221.74 378.264h-.003l-133.87 133.87a300.747 300.747 0 0019.26 17.634L221.74 415.154v-36.89zM221.74 221.742v-.002L87.869 87.868a300.747 300.747 0 00-17.635 19.26L184.848 221.74h36.892v.001zM378.263 221.742L512.135 87.869a300.386 300.386 0 00-19.26-17.634L378.263 184.85v36.893z" fill="#d80027" fill-rule="nonzero"/></symbol>
<symbol id="i-logo-studio-koedijk" viewBox="0 0 630 167" xmlns="http://www.w3.org/2000/svg" fill-rule="evenodd" clip-rule="evenodd" stroke-linejoin="round" stroke-miterlimit="2"><path d="M628.332 70.815h-7.897c-.605 0-1.081.482-1.108 1.09-.593 14.089-12.655 25.215-27.093 24.28-13.515-.875-23.734-12.68-23.734-26.222V36.708c0-6.234-5.052-11.283-11.287-11.283h-129.77v138.8a2.256 2.256 0 002.258 2.257h31.42v-32.064l16.031-34.948h41.639l16.032 34.948v32.064h31.41a2.269 2.269 0 002.267-2.27v-68.54c6.46 6.605 15.458 10.715 25.425 10.715 19.254 0 34.936-15.296 35.556-34.4a1.15 1.15 0 00-1.15-1.172" fill="#706f6f" fill-rule="nonzero"/><path d="M427.444 25.425c-13.677 0-24.832-10.8-25.403-24.338-.024-.605-.5-1.087-1.106-1.087h-7.896c-.64 0-1.17.533-1.15 1.171.309 9.501 4.353 18.05 10.698 24.254h-33.715c-.647 0-1.19.547-1.147 1.19.611 9.244 8.304 16.552 17.7 16.552 2.644 0 5.141-.593 7.392-1.63l20.478 44.637a2.256 2.256 0 002.052 1.315h12.097V35.572c19.254 0 34.936-15.296 35.554-34.4A1.15 1.15 0 00461.85 0h-7.898c-.605 0-1.081.482-1.106 1.087-.57 13.538-11.725 24.338-25.402 24.338m-15.645 24.852a3.527 3.527 0 11.002-7.053 3.527 3.527 0 01-.002 7.053" fill="#e2a325" fill-rule="nonzero"/><path d="M518.791 99.47h-41.638l16.033 34.948h41.638L518.79 99.469z" fill="#f8cbc3" fill-rule="nonzero"/><path fill="#e2a325" d="M493.186 134.418h41.639v32.065h-41.639z"/><path d="M486.014 25.425h-58.571V87.49h12.099c.882 0 1.682-.513 2.05-1.315l20.477-44.636a17.626 17.626 0 007.392 1.63c9.398 0 17.089-7.308 17.7-16.553.044-.644-.5-1.19-1.147-1.19m-43.054 24.85a3.527 3.527 0 11-.001-7.053 3.527 3.527 0 01.001 7.053" fill="#f8cbc3" fill-rule="nonzero"/><g><path d="M384.165 161.473l-22.693-35.534 20.338-28.153c.57-.715.769-1.303.588-1.767-.181-.462-.657-.694-1.444-.694H370.46c-1.855 0-3.245.748-4.17 2.247l-16.274 23.868c-1.64 2.714-2.747 4.924-3.316 6.64h-.214V97.572c0-1.499-.751-2.247-2.25-2.247h-9.097c-1.498 0-2.25.748-2.25 2.247v64.33c0 1.501.752 2.246 2.25 2.246h9.097c1.499 0 2.25-.745 2.25-2.246v-18.303l6.745-7.92 16.375 26.223c.854 1.501 2.533 2.246 5.03 2.246h7.815c.998 0 1.662-.23 1.981-.694.32-.464.232-1.124-.268-1.98M311.7 159.6c3.066-3.033 4.601-7.333 4.601-12.896V97.463c0-1.426-.748-2.138-2.25-2.138h-8.988c-1.57 0-2.355.748-2.355 2.247v48.488c0 2.285-.467 3.907-1.393 4.872-.925.965-2.532 1.441-4.818 1.441h-6.314c-2.21 0-3.799-.476-4.764-1.44-.962-.966-1.444-2.588-1.444-4.873v-9.42c0-1.496-.748-2.246-2.247-2.246h-9.1c-1.498 0-2.246.75-2.246 2.246v10.065c0 5.635 1.532 9.953 4.601 12.947 3.07 3 7.42 4.496 13.06 4.496h10.703c5.567 0 9.887-1.514 12.954-4.547m-55.447 2.3v-64.33c0-1.498-.748-2.246-2.25-2.246h-9.1c-1.495 0-2.243.748-2.243 2.247v64.33c0 1.501.748 2.246 2.243 2.246h9.1c1.502 0 2.25-.745 2.25-2.246m-34.841-2.301c3.105-3.033 4.652-7.333 4.652-12.896v-33.937c0-5.563-1.547-9.862-4.652-12.896-3.106-3.03-7.442-4.547-13.008-4.547h-26.437c-1.499 0-2.247.748-2.247 2.247v64.33c0 1.501.748 2.246 2.247 2.246h26.437c5.566 0 9.902-1.514 13.008-4.547m-8.937-13.541c0 2.285-.483 3.907-1.448 4.872-.965.965-2.587 1.441-4.87 1.441h-11.665c-.787 0-1.182-.389-1.182-1.176v-42.921c0-.787.395-1.176 1.182-1.176h11.666c2.282 0 3.904.482 4.87 1.441.964.965 1.447 2.587 1.447 4.873v32.646zm-47.849 15.842v-7.28c0-1.498-.715-2.249-2.14-2.249h-22.374c-.853 0-1.281-.389-1.281-1.176v-14.88c0-.784.428-1.173 1.281-1.173h18.306c1.498 0 2.249-.75 2.249-2.249v-7.282c0-1.495-.75-2.243-2.25-2.243h-18.305c-.853 0-1.281-.395-1.281-1.182v-13.912c0-.787.428-1.176 1.281-1.176h22.373c1.426 0 2.141-.751 2.141-2.25v-7.278c0-1.499-.715-2.247-2.14-2.247h-35.002c-1.498 0-2.246.748-2.246 2.247v64.33c0 1.501.748 2.246 2.246 2.246h35.001c1.426 0 2.141-.745 2.141-2.246m-60.048-2.25c3.07-2.994 4.6-7.312 4.6-12.947v-33.937c0-5.632-1.53-9.953-4.6-12.947-3.07-3-7.42-4.496-13.06-4.496H79.53c-5.635 0-9.99 1.496-13.059 4.496-3.066 2.994-4.601 7.315-4.601 12.947v33.937c0 5.635 1.535 9.953 4.601 12.947 3.07 3 7.424 4.496 13.06 4.496h11.988c5.638 0 9.99-1.496 13.059-4.496m-8.989-13.592c0 2.285-.482 3.907-1.447 4.872-.965.965-2.587 1.441-4.873 1.441h-7.601c-2.28 0-3.884-.476-4.812-1.44-.932-.966-1.393-2.588-1.393-4.873v-32.646c0-2.286.461-3.908 1.393-4.873.928-.959 2.532-1.441 4.812-1.441h7.601c2.286 0 3.908.482 4.873 1.441.965.965 1.447 2.587 1.447 4.873v32.646zm-44.052 17.394c.325-.464.232-1.124-.266-1.98L28.58 125.938l20.338-28.153c.572-.715.765-1.303.59-1.767-.18-.462-.663-.694-1.447-.694H37.57c-1.854 0-3.244.748-4.176 2.247l-16.27 23.868c-1.637 2.714-2.744 4.924-3.317 6.64h-.21V97.572c0-1.499-.752-2.247-2.25-2.247h-9.1C.75 95.325 0 96.073 0 97.572v64.33c0 1.501.751 2.246 2.247 2.246h9.1c1.498 0 2.25-.745 2.25-2.246v-18.303l6.738-7.92 16.379 26.223c.856 1.501 2.536 2.246 5.032 2.246h7.813c1 0 1.658-.23 1.978-.694" fill="#706f6f" fill-rule="nonzero"/><path d="M179.781 54.568V35.322c0-3.197-.871-5.648-2.611-7.348-1.74-1.698-4.21-2.548-7.408-2.548h-6.8c-3.199 0-5.668.85-7.405 2.548-1.743 1.7-2.614 4.151-2.614 7.348v19.246c0 3.199.871 5.647 2.614 7.348 1.737 1.7 4.206 2.55 7.405 2.55h6.8c3.199 0 5.668-.85 7.408-2.55 1.74-1.7 2.611-4.149 2.611-7.348m-7.713-.365c0 1.297-.274 2.216-.817 2.765-.549.543-1.468.817-2.765.817h-4.309c-1.296 0-2.207-.274-2.731-.817-.528-.549-.79-1.468-.79-2.765V35.686c0-1.296.262-2.216.79-2.765.524-.542 1.435-.817 2.731-.817h4.31c1.296 0 2.215.275 2.764.817.543.55.817 1.469.817 2.765v18.517zm-28.533 8.985V26.701c0-.85-.428-1.275-1.278-1.275h-5.162c-.85 0-1.273.425-1.273 1.275v36.487c0 .85.422 1.279 1.273 1.279h5.162c.85 0 1.278-.428 1.278-1.279m-19.765-1.302c1.758-1.722 2.642-4.158 2.642-7.318V35.322c0-3.157-.884-5.594-2.642-7.318-1.76-1.719-4.218-2.578-7.375-2.578h-14.998c-.85 0-1.278.425-1.278 1.275v36.487c0 .85.428 1.279 1.278 1.279h14.998c3.157 0 5.614-.86 7.375-2.581m-5.068-7.683c0 1.297-.275 2.216-.823 2.765-.546.543-1.466.817-2.762.817h-6.619c-.446 0-.666-.22-.666-.666V32.77c0-.444.22-.667.666-.667h6.619c1.296 0 2.216.275 2.762.817.548.55.823 1.469.823 2.765v18.517zM88.07 61.886c1.76-1.722 2.641-4.158 2.641-7.318V26.64c0-.811-.446-1.215-1.335-1.215h-5.102c-.85 0-1.276.425-1.276 1.275v27.502c0 1.297-.271 2.216-.817 2.765-.549.543-1.468.817-2.762.817h-4.19c-1.255 0-2.157-.274-2.703-.817-.545-.549-.82-1.468-.82-2.765V26.701c0-.85-.425-1.275-1.275-1.275h-5.16c-.85 0-1.278.425-1.278 1.275v27.867c0 3.199.875 5.647 2.612 7.348 1.745 1.7 4.212 2.55 7.408 2.55h6.679c3.157 0 5.614-.859 7.378-2.58M57.863 30.829V26.7c0-.85-.425-1.275-1.275-1.275H33.636c-.847 0-1.272.425-1.272 1.275v4.128c0 .85.425 1.275 1.272 1.275h6.923c.443 0 .67.223.67.667v30.417c0 .85.443 1.279 1.335 1.279h5.099c.85 0 1.275-.428 1.275-1.279V32.771c0-.444.245-.667.73-.667h6.92c.85 0 1.275-.425 1.275-1.275M24.165 61.853c1.782-1.737 2.675-4.189 2.675-7.345v-2.063c0-2.43-.477-4.423-1.427-5.98-.955-1.561-2.137-2.64-3.554-3.25-2.672-1.091-5.73-1.782-9.17-2.065-3.317-.283-4.978-1.375-4.978-3.278v-1.154c0-1.822.293-3.046.884-3.673.584-.627 1.706-.94 3.365-.94h2.37c1.619 0 2.731.283 3.34.85.606.567.908 1.637.908 3.217v.365c0 .85.428 1.275 1.278 1.275h5.16c.85 0 1.275-.425 1.275-1.275v-1.155c0-3.157-.893-5.605-2.672-7.345-1.782-1.743-4.272-2.611-7.465-2.611h-6.076c-3.154 0-5.623.868-7.405 2.61C.89 29.777 0 32.226 0 35.383v2.126c0 2.508.477 4.562 1.426 6.163.953 1.598 2.135 2.671 3.552 3.217 1.414.546 2.946.989 4.583 1.336 1.64.344 3.166.576 4.584.7 1.417.12 2.602.494 3.555 1.121.95.627 1.426 1.529 1.426 2.702v.73c0 1.658-.314 2.791-.941 3.4-.63.607-1.73.908-3.31.908h-2.853c-1.62 0-2.732-.283-3.338-.85-.61-.567-.914-1.62-.914-3.154v-.486c0-.85-.422-1.278-1.272-1.278H1.337c-.85 0-1.276.428-1.276 1.278v1.213c0 3.156.893 5.608 2.672 7.345 1.782 1.742 4.251 2.614 7.408 2.614h6.619c3.154 0 5.626-.872 7.405-2.614" fill="#f8cbc3" fill-rule="nonzero"/></g></symbol>
<symbol id="i-nl" viewBox="0 0 600 600" xmlns="http://www.w3.org/2000/svg" fill-rule="evenodd" clip-rule="evenodd" stroke-linejoin="round" stroke-miterlimit="2"><path d="M582.901 400C541.688 516.466 430.522 600 300 600c-130.523 0-241.689-83.534-282.902-200h565.803z" fill="#21468b"/><path d="M582.901 200C593.975 231.292 600 264.948 600 300c0 35.052-6.025 68.708-17.099 100H17.098C6.024 368.708 0 335.052 0 300c0-35.052 6.024-68.708 17.098-100h565.803z" fill="#fff"/><path d="M17.098 200C58.311 83.534 169.477 0 300 0c130.522 0 241.688 83.534 282.901 200H17.098z" fill="#ae1c28"/></symbol>
<symbol id="i-studio-koedijk-404" viewBox="0 0 512 303" xmlns="http://www.w3.org/2000/svg" fill-rule="evenodd" clip-rule="evenodd" stroke-linejoin="round" stroke-miterlimit="2"><path d="M256.544 87.769c-47.214 0-85.722-37.283-87.691-84.015-.085-2.09-1.729-3.755-3.819-3.755h-27.259c-2.21 0-4.037 1.842-3.967 4.045 1.063 32.799 15.025 62.31 36.929 83.725H54.348c-2.231 0-4.108 1.891-3.96 4.108 2.111 31.913 28.669 57.14 61.106 57.14 9.124 0 17.745-2.048 25.516-5.625L207.7 297.48a7.787 7.787 0 007.085 4.54h41.76V122.8c66.468 0 120.603-52.804 122.735-118.755.071-2.203-1.757-4.045-3.96-4.045h-27.266c-2.09 0-3.733 1.665-3.818 3.755-1.97 46.732-40.477 84.015-87.692 84.015m-54.007 85.793c-6.723 0-12.17-5.455-12.17-12.177 0-6.716 5.447-12.17 12.17-12.17 6.715 0 12.177 5.454 12.177 12.17 0 6.722-5.462 12.177-12.177 12.177" fill="#f8cbc3" fill-rule="nonzero"/><path d="M458.734 87.767H256.538V302.02h41.767a7.777 7.777 0 007.077-4.54l70.69-154.09c7.771 3.577 16.4 5.625 25.516 5.625 32.445 0 58.995-25.226 61.106-57.14.149-2.224-1.728-4.108-3.96-4.108m-148.627 85.786c-6.723 0-12.177-5.447-12.177-12.17 0-6.715 5.454-12.177 12.177-12.177 6.715 0 12.17 5.462 12.17 12.177 0 6.723-5.455 12.17-12.17 12.17" fill="#706f6f" fill-rule="nonzero"/><path d="M77.718 115.346c3.033-8.637 12.508-13.188 21.145-10.154 8.638 3.033 13.188 12.509 10.155 21.146a16.63 16.63 0 01-1.53 3.213c-2.536 6.186-6.943 20.333-1.428 34.198 7.344 18.462 18.536 31.942 18.536 31.942l-21.886 62.322a4.594 4.594 0 01-5.854 2.812L3.07 227.89a4.59 4.59 0 01-2.81-5.85l21.887-62.326s17.163-3.523 34.438-13.34c13.211-7.508 18.576-21.68 20.368-27.93a16.62 16.62 0 01.766-3.098z" fill="#e2a325"/><circle cx="187.384" cy="746.431" r="16.938" fill="#706f6f" transform="matrix(-.40752 -.1431 -.1431 .40752 276.549 -156.526)"/><g><text x="289.467" y="1172.69" font-family="'Rajdhani-Bold','Rajdhani'" font-weight="700" font-size="558.959" fill="#706f6f" transform="rotate(19.349 -266.214 125.297) scale(.09455)">4<tspan x="608.632px 925.003px" y="1172.69px 1172.69px">04</tspan></text></g><g><path d="M402.972 126.324c-3.025-8.64 1.532-18.111 10.173-21.137 8.64-3.026 18.111 1.533 21.137 10.173a16.63 16.63 0 01.813 3.464c1.882 6.416 7.276 20.217 20.242 27.6 17.266 9.832 34.426 13.37 34.426 13.37l21.832 62.341a4.594 4.594 0 01-2.817 5.852l-93.815 32.854a4.59 4.59 0 01-5.848-2.815l-21.833-62.344s11.204-13.47 18.564-31.926c5.628-14.116.967-28.534-1.537-34.535a16.62 16.62 0 01-1.337-2.897z" fill="#e2a325"/><circle cx="187.384" cy="746.431" r="16.938" fill="#706f6f" transform="scale(-.43191 .43191) rotate(19.3 981.288 -2888.024)"/><g><text x="289.467" y="1172.69" font-family="'Rajdhani-Bold','Rajdhani'" font-weight="700" font-size="558.959" fill="#706f6f" transform="rotate(-19.299 594.686 -959.129) scale(.09455)">4<tspan x="608.632px 925.003px" y="1172.69px 1172.69px">04</tspan></text></g></g></symbol>
<symbol id="i-studio-koedijk-error" viewBox="0 0 651 414" xmlns="http://www.w3.org/2000/svg" fill-rule="evenodd" clip-rule="evenodd" stroke-linejoin="round" stroke-miterlimit="2"><path d="M502.022 350.498c33.986 0 61.704 26.837 63.12 60.473.063 1.503 1.246 2.705 2.75 2.705h19.621c1.587 0 2.906-1.329 2.855-2.914-.766-23.607-10.815-44.847-26.583-60.265h83.777c1.604 0 2.957-1.357 2.852-2.959-1.523-22.966-20.635-41.124-43.987-41.124-6.564 0-12.77 1.473-18.367 4.046l-50.88-110.913a5.609 5.609 0 00-5.097-3.27h-30.06v129.005c-47.845 0-86.811 38.012-88.346 85.482-.052 1.585 1.267 2.912 2.853 2.912h19.623c1.505 0 2.687-1.202 2.75-2.705 1.417-33.636 29.134-60.473 63.12-60.473m38.873-61.751a8.763 8.763 0 010 17.525c-4.833 0-8.763-3.93-8.763-8.762 0-4.84 3.93-8.763 8.763-8.763M275.042 166.516h103.463l-39.838-86.841H235.205l39.837 86.84z" fill="#f8cbc3" fill-rule="nonzero"/><path fill="#e2a325" d="M338.66 79.67H235.2V-.004H338.66z"/><path d="M356.482 350.498h145.539v-154.22H471.96a5.604 5.604 0 00-5.097 3.27l-50.88 110.913c-5.597-2.573-11.803-4.047-18.367-4.047-23.352 0-42.464 18.158-43.985 41.125-.107 1.6 1.246 2.96 2.851 2.96" fill="#e2a325" fill-rule="nonzero"/><path d="M356.45 350.497c-1.59-.018-2.925-1.369-2.82-2.958 1.522-22.967 20.634-41.125 43.986-41.125 6.564 0 12.77 1.474 18.367 4.047l50.88-110.914a5.604 5.604 0 015.097-3.27h30.06V5.607a5.609 5.609 0 00-5.608-5.61h-78.075v79.675l-39.835 86.842H275.04l-39.838-86.842V-.003h-78.043a5.642 5.642 0 00-5.638 5.643v170.31c-16.05-16.414-38.409-26.63-63.176-26.63-47.844 0-86.81 38.01-88.346 85.482-.052 1.584 1.268 2.91 2.853 2.91h19.622c1.505 0 2.687-1.2 2.751-2.704 1.475-35.015 31.448-62.658 67.324-60.335 33.58 2.174 58.972 31.507 58.972 65.156v82.634c0 15.491 12.556 28.034 28.048 28.034h176.88zM463.465 288.747a8.763 8.763 0 018.763 8.764c0 4.833-3.924 8.762-8.763 8.762-4.834 0-8.763-3.93-8.763-8.762 0-4.84 3.93-8.764 8.763-8.764" fill="#706f6f" fill-rule="nonzero"/></symbol>
</svg>